/* XPM */
static char *result[] = {
/* columns rows colors chars-per-pixel */
"64 39 227 2 ",
"   c #2D1707",
".  c #412915",
"X  c #552F10",
"o  c #542D0E",
"O  c #6E390B",
"+  c #673409",
"@  c #763B0E",
"#  c #723E13",
"$  c #5E3D20",
"%  c #7C400F",
"&  c #774314",
"*  c #7C4617",
"=  c #684930",
"-  c #813909",
";  c #AF3F0A",
":  c #83410B",
">  c #8E4C0E",
",  c #834915",
"<  c #954E11",
"1  c #904316",
"2  c #995517",
"3  c #9C470E",
"4  c #A2470C",
"5  c #BF4C0A",
"6  c #A35211",
"7  c #A85B15",
"8  c #B45917",
"9  c #AF6419",
"0  c #BD6419",
"q  c #855C38",
"w  c #8A5727",
"e  c #AF582D",
"r  c #9F632F",
"t  c #86603E",
"y  c #966234",
"u  c #AA652A",
"i  c #BC6E21",
"p  c #B56D28",
"a  c #A36530",
"s  c #B77434",
"d  c #BB7128",
"f  c #CE4F0D",
"g  c #C75F0E",
"h  c #D34A10",
"j  c #C55919",
"k  c #E25E11",
"l  c #F85918",
"z  c #E34614",
"x  c #CE6F19",
"c  c #D86D1F",
"v  c #C5731D",
"b  c #D6781D",
"n  c #E5741D",
"m  c #E46714",
"M  c #E15A22",
"N  c #CE6522",
"B  c #C47123",
"V  c #CB7927",
"C  c #C87E32",
"Z  c #D47E2A",
"A  c #E67726",
"S  c #E97638",
"D  c #FC692E",
"F  c #926D4E",
"G  c #B37D4D",
"H  c #B97645",
"J  c #B07C53",
"K  c #A97244",
"L  c #987F6B",
"P  c #F67E41",
"I  c #E17645",
"U  c #DC852A",
"Y  c #DE8A2F",
"T  c #D3822E",
"R  c #D58433",
"E  c #DC8932",
"W  c #D5893E",
"Q  c #DA883A",
"!  c #CE8337",
"~  c #E38A2B",
"^  c #F28728",
"/  c #E08F3A",
"(  c #E28A35",
")  c #F28C33",
"_  c #E2903A",
"`  c #EC943B",
"'  c #F8963C",
"]  c #F39A28",
"[  c #F6A439",
"{  c #F8A039",
"}  c #FCB637",
"|  c #B5804E",
" . c #BE8349",
".. c #BE8B57",
"X. c #B2947D",
"o. c #CB8748",
"O. c #CA8747",
"+. c #DB8F42",
"@. c #D18E4B",
"#. c #DB9449",
"$. c #C28A52",
"%. c #D48059",
"&. c #CD9259",
"*. c #DE9955",
"=. c #D2955C",
"-. c #D89558",
";. c #E78548",
":. c #F38D4A",
">. c #E69641",
",. c #EB9A44",
"<. c #E4994C",
"1. c #EB9D4B",
"2. c #E79D41",
"3. c #F09C40",
"4. c #E59D53",
"5. c #E49D59",
"6. c #F59957",
"7. c #EFA14F",
"8. c #F4A647",
"9. c #EDA255",
"0. c #E2A25C",
"q. c #EBA55A",
"w. c #EFA95D",
"e. c #E7A055",
"r. c #FAAF54",
"t. c #F3AA5C",
"y. c #F1A351",
"u. c #C99565",
"i. c #D89B6A",
"p. c #F18F61",
"a. c #E49A66",
"s. c #F09162",
"d. c #F09C76",
"f. c #DCA36B",
"g. c #DAA268",
"h. c #DEAD7B",
"j. c #D7A677",
"k. c #E3A465",
"l. c #EDAA63",
"z. c #E5A96B",
"x. c #ECAD6C",
"c. c #E8A768",
"v. c #F2AE64",
"b. c #F7A265",
"n. c #F5B167",
"m. c #F4B36D",
"M. c #F9B467",
"N. c #E3AB73",
"B. c #EBAE73",
"V. c #E8AA77",
"C. c #EEB272",
"Z. c #ECB57B",
"A. c #E7B47E",
"S. c #F3B573",
"D. c #F6B976",
"F. c #F8B974",
"G. c #F6B17A",
"H. c #F4BA7B",
"J. c #F8BD7C",
"K. c #E7B06B",
"L. c #FBC15D",
"P. c #FCCD6F",
"I. c #F7C676",
"U. c #D7AC83",
"Y. c #DEB285",
"T. c #DDB788",
"R. c #ECBA85",
"E. c #E6B88A",
"W. c #F5BE82",
"Q. c #F8BF80",
"!. c #F7BC8A",
"~. c #E1B390",
"^. c #C6B8AD",
"/. c #F6C085",
"(. c #F9C283",
"). c #F5C38B",
"_. c #F9C58B",
"`. c #F9C883",
"'. c #FAD287",
"]. c #ECC296",
"[. c #EFCC97",
"{. c #F5C693",
"}. c #F9C792",
"|. c #F6C897",
" X c #FACA95",
".X c #F6CB9B",
"XX c #F9CD9C",
"oX c #F5C69C",
"OX c #FAD49B",
"+X c #D8C8B9",
"@X c #EBC4A2",
"#X c #EBC6A4",
"$X c #F8CDA5",
"%X c #FAD2A4",
"&X c #F5D3AC",
"*X c #FAD6AC",
"=X c #FBD8AF",
"-X c #ECCFB2",
";X c #EFD5B8",
":X c #FAD7B0",
">X c #FBDAB4",
",X c #F5DABE",
"<X c #FADDBB",
"1X c #F6D8B8",
"2X c #FBE5BD",
"3X c #EEDCCD",
"4X c #F3DCC4",
"5X c #F9DEC2",
"6X c #F0DDC9",
"7X c #FBE2C3",
"8X c #F4E1CC",
"9X c #FBE5CA",
"0X c #F8E4CA",
"qX c #F2E4D4",
"wX c #FAE9D4",
"eX c #F3E9DD",
"rX c #F9E9D7",
"tX c #EDE6E1",
"yX c #EFEBE7",
"uX c #F3EBE2",
"iX c #F1EEEA",
"pX c #F6F2EE",
"aX c #FBF3EC",
"sX c #FCF8F5",
"dX c #FDFCFB",
"fX c #F4F4F3",
"gX c None",
/* pixels */
"gXgXgXgXgXgXgXgXgXgXgXgXgXgXgXgXgXgXgXgXgXgXgXgXgXgXgXgXgXgXgXgXgXgXgXgXgXgXgXgXgXgXgXgXgXgXgXgXgXgXgXgXgXgXgXgXgXgXgXgXgXgXgXgX",
"gXgXgXgXgXgXgXgXgXgXgXgXgXgXgXgXgXgXgXgXgXgXgXgXgXgXgXgXgXgXgXgXgXgXgXgXgXgXgXgXgXgXgXgXgXgXgXgXgXgXgXgXgXgXgXgXgXgXgXgXgXgXgXgX",
"gXgXgXgXgXgXgXgXgXgXgXgXgXgXgXgXgXgXgXgXgXgXgXgXgXgXgXgXgXgXgXgXgXgXgXgXgXgXgXgXgXgXgXgXgXgXgXgXgXgXgXgXgXgXgXgXgXgXgXgXgXgXgXgX",
"gXgXgXgXgXgXgXgXgXgXgXgXgXgXgXgXgXgXgXgXgXgXgXgXgXgXgXgXgXgXgXgXgXgXgXgXgXgXgXgXgXgXgXgXgXgXgXgXgXgXgXgXgXgXgXgXgXgXgXgXgXgXgXgX",
"gXgXgXgXgXgXgXgXgXgXgXgXgXgXgXgXgXgXgXgXgXgXgXgXgXgXgXgXgXgXgXgXgXgXgXgXgXgXgXgXgXgXgXgXgXgXgXgXgXgXgXgXgXgXgXgXgXgXgXgXgXgXgXgX",
"gXgXgXgXgXgXgXgXgXgXgXgXgXgXgXgXgXgXgXgXgXgXgXgXgXgXgXgXgXgXgXgXgXgXgXgXgXgXgXgXgXgXgXgXgXgXgXgXgXgXgXgXgXgXgXgXgXgXgXgXgXgXgXgX",
"gXgXgXgXgXgXgXgXgXgXgXgXgXgXgXgXgXgXgXgXgXgXgXgXgXgXgXgXgXgXgXgXgXgXgXgXgXgXgXgXgXgXgXgXgXgXgXgXgXgXgXgXgXgXgXgXgXgXgXgXgXgXgXgX",
"gXgXgXgXgXgXgXgXgXgXgXgXgXgXgXgXgXgXgXgXgXgXgXgXgXgXgXgXgXgXgXgXgXgXgXgXgXgXgXgXgXgXgXgXgXgXgXgXgXgXgXgXgXgXgXgXgXgXgXgXgXgXgXgX",
"gXgXgXgXgXgXgXgXgXdXsXiXyXqXrXrXeXyXpXdXdXgXgXgXgXgXgXgXgXgXgXgXgXgXgXgXgXgXgXgXgXgXgXgXgXgXgXgXgXgXgXgXgXgXgXgXgXgXgXgXgXgXgXgX",
"gXgXgXgXgXgXgXgXeX;XU.Y.h.]..X2X9X<X.XoX7XuXyXiXdXgXgXgXgXgXgXgXgXgXgXgXgXgXgXgXgXgXgXgXgXgXgXgXgXgXgXgXgXgXgXgXgXgXgXgXgXgXgXgX",
"gXgXgXgXgXgXgX,X=Xk.-.! Z._.%X7X9X7X&X:X7X<X7X0X8XrXaXfXfXgXgXgXgXgXgXgXgXgXgXgXgXgXgXgXgXgXgXgXgXgXgXgXgXgXgXgXgXgXgXgXgXgXgXgX",
"gXgXgXgXgXgX.X%XW.W.A.5.).W.q.%X<X%X$X XE.R.<X>X&X<X9X,X9XuXtXuXgXgXgXgXgXgXgXgXgXgXgXgXgXgXgXgXgXgXgXgXgXgXgXgXgXgXgXgXgXgXgXgX",
"gXgXgXgXgX$X(.}.).XXXXS.).e.v.*X>X XOXW.j.A.|.H..X|.)..X1X9X<X$X].#X7X8X4XeXsXsXgXgXgXgXgXgXgXgXgXgXgXgXgXgXgXgXgXgXgXgXgXgXgXgX",
"gXgXgXgX}.S.v.C.R.(.}.I.n.x./.%X>X=X XC.h.Z. X:X9X<X<X=X.X%XXX XZ.{.XX*X.Xl.k.u.T.E.6XgXgXgXgXgXgXgXgXgXgXgXgXgXgXgXgXgXgXgXgXgX",
"gXgXgX.X(.B.1.m.W.Q.).{.4.0.).*X>X%XW.].g.XX&XR.=X%XXX&.p m.*X=X$XXX=X<X=Xm.K.R.).f.E.qXgXgXgXgXgXgXgXgXgXgXgXgXgXgXgXgXgXgXgXgX",
"gXgXgXgXM.5./ Q.Q.S.{.{.0.).XX<X<X{.{.[.k.*Xg.f.%X=X=X@.@..XA.N.g.).XX%X%X|.{.%XJ.%X9X9X8XqX6X<X8XgXgXgXgXgXgXgXgXgXgXgXgXgXgXgX",
"gXgXgXgX1.E T m.F.m.).=XXX X%X>XXXZ..Xq.C..X/.{.%X>XD.v.XX XR.Z.c.H.B.H.%X$.o.).<X9X5XwX9X4Xd.s.}.%X5XgXgXgXgXgXgXgXgXgXgXgXgXgX",
"gXgXgXgXgX| p +.9.q.(.XX_.J.).D.(.&.z.<./.m.H.l.).).,.x.=X9X XF.H. X).(. XN.z.&XwX7X%XXX$XW.S 6.5X$XD a.[.gXgXgXgXgXgXgXgXgXgXgX",
"gXgXgXgXgXgXgX..U R m.Q.J.F.m.e.v.z.q.e.F.m.D.<.9.l.m.Q.5X7X}.}._.XX{./.OX>XS.%X>X%Xy.8.u.e j ;.E.I z f x ' b.M.'.gXgXgXgXgXgXgX",
"gXgXgXgXgXgXgXgXgXs R >.1.t.t.Q w.n.q.e.t.w.q./ / v.m.%X7XXXH.|.W.%XH.m.R.|.).%X:Xn.C c.t + 4 k 6.i.- 4 f m ^ t.gXgXgXgXgXgXgXgX",
"gXgXgXgXgXgXgXgXgXgXgXgXgXgXgXi _ 2.>.<.,.~ / / E 7.(.%XXX/.t./.Z.R.(.).Z.z.).%Xc.i H @XF - 4 h 8.XXJ - 6 0 A {.gXgXgXgXgXgXgXgX",
"gXgXgXgXgXgXgXgXgXgXgXgXgXgXgXgXgXgXgXi Y U ( ~ B +./.%X_./.).%XXXC.F.}.*Xh.z.H.Z 8 I Y.q < 6 ; ^ (.E.B ~ >.3.XXgXgXgXgXgXgXgXgX",
"gXgXgXgXgXgXgXgXgXgXgXgXgXgXgXgXgXgXgXgXgXgXgXgXv / F./.v.<./. X_.q.9._. Xf.k.*.V -.p.s.$ @ < c { `.!.' r.P.P.2XgXgXgXgXgXgXgXgX",
"gXgXgXgXgXgXgXgXgXgXgXgXgXgXgXgXgXgXgXgXgXgXgXgXgXgXgX_ E 2.9.m./.l.2.w.O.0.w.I a V.p.e   o , Z 8.J.a.N 1.] ] r.&XgXgXgXgXgXgXgX",
"gXgXgXgXgXgXgXgXgXgXgXgXgXgXgXgXgXgXgXgXgXgXgXgXgXgXgXgXgXgXC 7.v.M.t.,.W +.#.d + B ) Y * % 6 g x <.G @ N n n A O.gXgXgXgXgXgXgX",
"gXgXgXgXgXgXgXgXgXgXgXgXgXgXgXgXgXgXgXgXgXgXgXgXgXgXgXgXgXgXgXgXgXgX>.` >.V ! i & p [ } 8./ ` Q 7 X . @ h l l S =.@XgXgXgXgXgXgX",
"gXgXgXgXgXgXgXgXgXgXgXgXgXgXgXgXgXgXgXgXgXgXgXgXgXgXgXgXgXgXgXgXgXgXgXgXv 9 i B 2 * K.I.P.A y.`.$.. o & v A M P G.%XgXgXgXgXgXgX",
"gXgXgXgXgXgXgXgXgXgXgXgXgXgXgXgXgXgXgXgXgXgXgXgXgXgXgXgXgXgXgXgXgXgXgXgXgXgX> 7 > & | OX0.g A 6.W.q o 7 7 V 5.b.:.b.*XgXgXgXgXgX",
"gXgXgXgXgXgXgXgXgXgXgXgXgXgXgXgXgXgXgXgXgXgXgXgXgXgXgXgXgXgXgXgXgXgXgXgXgXgXgX& + O r z.5.Z ~ :.;.o.w 3 9 % O.-.-.c.{.gXgXgXgXgX",
"gXgXgXgXgXgXgXgXgXgXgXgXgXgXgXgXgXgXgXgXgXgXgXgXgXgXgXgXgXgXgXgXgXgXgXgXgXgXgXgXX.$.&.i.V.x.1.c.K o.u.2 * * d u H o.4.;XgXgXgXgX",
"gXgXgXgXgXgXgXgXgXgXgXgXgXgXgXgXgXgXgXgXgXgXgXgXgXgXgXgXgXgXgXgXgXgXgXgXgXgXgXgXgX~.=.u.5.k.a.j.q y z.s 8 ;.S.oX4X-XR.$XgXgXgXgX",
"gXgXgXgXgXgXgXgXgXgXgXgXgXgXgXgXgXgXgXgXgXgXgXgXgXgXgXgXgXgXgXgXgXgXgXgXgXgXgXgXgX~.4.i.*.i.o.G = # U.E.i.@X5XuXgXgXgXgXgXgXgXgX",
"gXgXgXgXgXgXgXgXgXgXgXgXgXgXgXgXgXgXgXgXgXgXgXgXgXgXgXgXgXgXgXgXgXgXgXgXgXgXgXgXgXgX[.T.=.-.f.+X^.X.tXeXuXgXgXgXgXgXgXgXgXgXgXgX",
"gXgXgXgXgXgXgXgXgXgXgXgXgXgXgXgXgXgXgXgXgXgXgXgXgXgXgXgXgXgXgXgXgXgXgXgXgXgXgXgXgXgXgXgXaX3XtXgXgXgXgXgXgXgXgXgXgXgXgXgXgXgXgXgX",
"gXgXgXgXgXgXgXgXgXgXgXgXgXgXgXgXgXgXgXgXgXgXgXgXgXgXgXgXgXgXgXgXgXgXgXgXgXgXgXgXgXgXgXgXgXgXgXgXgXgXgXgXgXgXgXgXgXgXgXgXgXgXgXgX",
"gXgXgXgXgXgXgXgXgXgXgXgXgXgXgXgXgXgXgXgXgXgXgXgXgXgXgXgXgXgXgXgXgXgXgXgXgXgXgXgXgXgXgXgXgXgXgXgXgXgXgXgXgXgXgXgXgXgXgXgXgXgXgXgX",
"gXgXgXgXgXgXgXgXgXgXgXgXgXgXgXgXgXgXgXgXgXgXgXgXgXgXgXgXgXgXgXgXgXgXgXgXgXgXgXgXgXgXgXgXgXgXgXgXgXgXgXgXgXgXgXgXgXgXgXgXgXgXgXgX",
"gXgXgXgXgXgXgXgXgXgXgXgXgXgXgXgXgXgXgXgXgXgXgXgXgXgXgXgXgXgXgXgXgXgXgXgXgXgXgXgXgXgXgXgXgXgXgXgXgXgXgXgXgXgXgXgXgXgXgXgXgXgXgXgX",
"gXgXgXgXgXgXgXgXgXgXgXgXgXgXgXgXgXgXgXgXgXgXgXgXgXgXgXgXgXgXgXgXgXgXgXgXgXgXgXgXgXgXgXgXgXgXgXgXgXgXgXgXgXgXgXgXgXgXgXgXgXgXgXgX"
};
