/* XPM */
static char *c8e3ccc76ffc468c82bfd75bbf57e09ftCrh1xgtlHlfxYM3[] = {
/* columns rows colors chars-per-pixel */
"63 54 256 2 ",
"   c #040104",
".  c #0B0203",
"X  c #0A050B",
"o  c #0D0A0C",
"O  c #07060A",
"+  c #140303",
"@  c #1B0302",
"#  c #1C0A04",
"$  c #12060B",
"%  c #130C0D",
"&  c #1B0C0C",
"*  c #150805",
"=  c #15110D",
"-  c #1C130C",
";  c #1F1A07",
":  c #0D0B13",
">  c #0C0917",
",  c #130C14",
"<  c #1B0D13",
"1  c #140E1B",
"2  c #190C17",
"3  c #141213",
"4  c #1B1314",
"5  c #16121B",
"6  c #1B131C",
"7  c #1C1A18",
"8  c #220C03",
"9  c #2B0C02",
"0  c #220D0A",
"q  c #2D0C0C",
"w  c #290605",
"e  c #330C0B",
"r  c #370B06",
"t  c #2B1204",
"y  c #28140C",
"u  c #33150C",
"i  c #3B1C0C",
"p  c #351708",
"a  c #231314",
"s  c #23151B",
"d  c #241C1C",
"f  c #2C1B1C",
"g  c #291815",
"h  c #341A14",
"j  c #3C1B12",
"k  c #341C1B",
"l  c #3B1C1C",
"z  c #321514",
"x  c #300B17",
"c  c #39260A",
"v  c #29241A",
"b  c #3C221E",
"n  c #3A2C1C",
"m  c #352618",
"M  c #38311D",
"N  c #2D260E",
"B  c #130E20",
"V  c #1B1423",
"C  c #191627",
"Z  c #1B1734",
"A  c #0C1C31",
"S  c #241B23",
"D  c #251A2B",
"F  c #291A26",
"G  c #3A1D24",
"H  c #361C27",
"J  c #261D36",
"K  c #321833",
"L  c #1D2630",
"P  c #2C2425",
"I  c #2C242B",
"U  c #282725",
"Y  c #342324",
"T  c #3C2423",
"R  c #342D22",
"E  c #3C2B25",
"W  c #3B2B29",
"Q  c #33272B",
"!  c #3A352A",
"~  c #2B2536",
"^  c #372935",
"/  c #3A3735",
"(  c #28352E",
")  c #461907",
"_  c #541C04",
"`  c #451B14",
"'  c #46100F",
"]  c #46270B",
"[  c #56250B",
"{  c #583408",
"}  c #482717",
"|  c #582C15",
" . c #473718",
".. c #573819",
"X. c #672807",
"o. c #752B06",
"O. c #78380B",
"+. c #673819",
"@. c #763915",
"#. c #68340E",
"$. c #432523",
"%. c #452924",
"&. c #492B25",
"*. c #442D29",
"=. c #4A2D29",
"-. c #472625",
";. c #562923",
":. c #44322C",
">. c #4B332D",
",. c #483828",
"<. c #53352B",
"1. c #543B2D",
"2. c #583727",
"3. c #452B35",
"4. c #4A3631",
"5. c #4D3B34",
"6. c #443835",
"7. c #533C34",
"8. c #563A34",
"9. c #6D3A2B",
"0. c #6C1A02",
"q. c #544913",
"w. c #6A4617",
"e. c #774615",
"r. c #705115",
"t. c #49432B",
"y. c #574627",
"u. c #4A4538",
"i. c #544235",
"p. c #5B4135",
"a. c #55433A",
"s. c #5B463A",
"d. c #5C493D",
"f. c #554C38",
"g. c #5B552E",
"h. c #694725",
"j. c #754827",
"k. c #6B572A",
"l. c #785829",
"z. c #654739",
"x. c #734A36",
"c. c #685839",
"v. c #775938",
"b. c #666923",
"n. c #756833",
"m. c #6B691F",
"M. c #1C1F45",
"N. c #261E44",
"B. c #282349",
"V. c #392B43",
"C. c #2A2B5B",
"Z. c #39315C",
"A. c #30364E",
"S. c #2C2957",
"D. c #493548",
"F. c #48334E",
"G. c #6B3E43",
"H. c #3C454F",
"J. c #494644",
"K. c #594B42",
"L. c #5B5445",
"P. c #575658",
"I. c #634E41",
"U. c #6C4D41",
"Y. c #635142",
"T. c #695844",
"R. c #755A44",
"E. c #6D5952",
"W. c #796749",
"Q. c #736954",
"!. c #6F6F6D",
"~. c #5E5E68",
"^. c #873906",
"/. c #943903",
"(. c #893911",
"). c #A23D01",
"_. c #823A2B",
"`. c #874716",
"'. c #875818",
"]. c #904B0F",
"[. c #AE4F0B",
"{. c #916615",
"}. c #AA6913",
"|. c #824927",
" X c #865926",
".X c #97552A",
"XX c #865A33",
"oX c #98512D",
"OX c #AC5732",
"+X c #87642A",
"@X c #9B682A",
"#X c #876937",
"$X c #956A37",
"%X c #957439",
"&X c #8F7431",
"*X c #A7793D",
"=X c #B47939",
"-X c #A57230",
";X c #CF6C0E",
":X c #C77531",
">X c #CF6007",
",X c #836347",
"<X c #8A7848",
"1X c #997748",
"2X c #8E7451",
"3X c #A97949",
"4X c #89776A",
"5X c #CA7E42",
"6X c #7D8333",
"7X c #7E855C",
"8X c #8C8B37",
"9X c #A9873A",
"0X c #B48C33",
"qX c #9AA03C",
"wX c #F6AB11",
"eX c #CC903B",
"rX c #FAAF31",
"tX c #E1971B",
"yX c #FFC725",
"uX c #99864B",
"iX c #998859",
"pX c #8F8B4B",
"aX c #A68748",
"sX c #B88747",
"dX c #B79649",
"fX c #A69658",
"gX c #B69759",
"hX c #A78E4D",
"jX c #BCA557",
"kX c #95896D",
"lX c #AC986A",
"zX c #B9A86F",
"xX c #CA934D",
"cX c #E69856",
"vX c #D1AB55",
"bX c #CBA668",
"nX c #D7A864",
"mX c #C7B776",
"MX c #D3AF73",
"NX c #EEB873",
"BX c #DEA65B",
"VX c #E8C965",
"CX c #737C8F",
"ZX c #7895B0",
"AX c #7096C6",
"SX c #909493",
"DX c #A99A8A",
"FX c #B1AC89",
"GX c #8891AD",
"HX c #B1B0B1",
"JX c #C8B78E",
"KX c #D2BAA2",
"LX c #CCC28F",
"PX c #F1D295",
"IX c #CACDC6",
"UX c #E9E2EA",
/* pixels */
"> Z J S > s G -.3.3.-.<.K C V F.^ ~ I ^ D.D.F.F.V.N.Z D D D K 1 X $ $ $ $ $ $ $ $ $ $ & X * % * z k J N.@ H B.Z.B.Z S.C.Z B A ",
"1 Z D I , 6 G -.3.;.-.=.^ J Z V.^ J ~ J J C ~ F.^ V.N.D F D D V V , > X * X $ $ $ $ & u q y u % F z D V x H B.Z.B.C C.C.Z M.C.",
"5 1 > , , V -.-.3.-.=.<.^ S 2 & u z F k H D ~ V.B C N.D F D F D N.V : 2 B , 1 1 > , = * a z 0 @ f z , Z s G B.Z.B.C C.Z.M.M.C.",
"% % , % > 1 H *.=.-.l a 2 2 , < h j j j j u j ` k s 3.H F F F Z N.Z : V D 2 5 D F 6 5 C , < 6 X f k $ Z V G C.Z.B.C C.C.Z M.C.",
"4 a 2 2 2 6 G l t ; . & u a % < h i j j } j j } p { #.#.@.] | ` 3.J . > C > B D D V s F.I F V.S g l 2 2 K H B.Z.B.C Z.C.Z B.C.",
"2 % < , , < y $ e.e.p ] w.0 a , u h j j j j j q p ... . } #.[ X.X.O.:X*Xl.) b T D B B Z.~ S V.F k $.a 5 V.K 5 2 1 5 N.C.Z M.C.",
"4 , O $ O + & y }.'.`.#.(.;Xi 3 z h h h u g a < c r.{.] {.e._ | ) bX%X0XxXOXo.o.o.X.X.9.$.k 3.D s G s > N.G Z 5 > : O O : B Z ",
"$ p [ . ] * - | e.{.}.[.}.;X] O u u u i z < a * ] }.0X=X0X'._ ` 0 MXw.0X8 vX) xX.Xo.^.`.].O.@.X.X.| ` < H H > X 3 3 3 1 : 1 > ",
"  #.}.{ [ O.e.w.{ }.;X}.;X].p O t r p p 0 - 0 . y r.u c r.e.) - + i 0X+X@ vX| w.(.|.o.[ xX].X.X.o.X.0._ _ l ;.+.0 & , 5 5 C V ",
"  e.].].}.;X}.}.tX{.].[ p   . * t t p p y # # o . ] c O m #.p . <XsXNX8 { vXaX3X#X1XxXj.9.`.O.(.X._ |.3X' G v.eX$Xr y 9 0 & O ",
". { }.;X;X;X`.w.] *   . & - ; g 8 t # @ 8 8 # * * . ] #.#._ )   l.BXMX3XVXl.dXnX1X1XMXgXgX1XbXnXBX_ l.xXr H  .{.+Xw..X] * i j.",
"  }.}.].#.p . O . p [ i 8 . . * 8 8 ,.kX1.t t t t 8 * # 8 p 8 * + u . ..r.  n.dXsXx.nXMXnXnXvXdXBX[ $XnX_ s &X .r.9X| h...p  X",
". i q . + @ E DXf.# 8 & / P 7 ! =   7 Q.( . * # # 8 t u t n E.] t 8 t + # 8 + . @ @ } | h.#Xj.w.9X@.h.PX#.x gX+.dXeXeX+XvX#X%X",
".   O $ . . % v N +.OXoXMX4X!.JXpX<XW.c.T.t.! N v / 3 *   R !.g . # @ t t t t d.I.9 # + . . . + 0 t u  .r G >.xX+Xm.vX@XxXvXBX",
"oX[.(.).].u # _ (.5XcXcXxXk.E.jXn.&XuXdXJXJXfXiXfXzXzXiXW.n.g.g.u.! u.m - # . K.a.w ) _ X.| c # + + + . 9 G + @ + # ] h y.XX%X",
">X;X;XrXyXq.9 ].3XcXNXcXcXv.L.MXdXlXLXKXLXjX+X<XkXbXLXlXn.<XuXuXpXuXzXFX2XpX<Xn.] ).>X>X;X:Xh.SXW.c.i.m @ k 0 + # @ . + .   . ",
"wXtXtXrXrXq.y `.1X1XkXL.N o f.uXFXlXfXfXlXjXmXmXFXKXLXxX+Xk.k.h.W.zXJXfXXX+X%XhX{.gXJXuXk..X|.SXlXuXhXT.u H z X.p M y.,.M m v ",
"yXwXwXwXwX] O = 4 V m v m m / } 1.}  . .y.2.4XW.y.m.w.y.q.} l.uXkXzXbXjXuXfXzXFX$XgXLXMXJXbX^.kXkXz.c.t.` H l #.} E y.t.t.H.7X",
"tX0X-Xl.w. .c.pX#X3X%X+X@XXXi.$X|.e.j.@.e.+.[ ) g p _ } | ..-XjX<X] ..w.k.lX<XXX'.1XmXBXbXxX`.<Xl.y.y./ u Q k o.` d ! R / / J.",
"].5.FXc.&Xn.pXjXfXjXhXiXmXgXf.jXgXgXvXgX3X0X&X+Xw.w.e.-X%X9X9XdX%Xx.XX Xj.@.#.+.'.#X3X5XxXeX`.v.l.1.R Q & D.B o : M t.u.t./ / ",
";X+.lX,Xb.b.q.q.M c q... X#X,.gXgXjXdXn.r.r.k.v.l.m.hX9X<XuXdXaX&XuXdXdXuXsXsXaX'.$X:X:XcXNX^.mXMXxXiXu.v 3.Y ,.o P 5.R / u.! ",
">X` 9XfX8X6Xm.m.q.q.n h.-Xl.,.Q.c.q.@X@.{.-Xe.1XW.0XvXvXhXdX0XdX{.r.{ q.v.uX3Xz.'.dXxX5XcXtX].mXNXNXPXkXc.K.Y h.3 m t.! t.h.! ",
"[.| 8XpXqX6X6X6Xq.m.q.&XxXq.A.HX1X{ *X3X=X9Xo.bXMXdX].vX9X-X+X9X-Xc [ +. Xl.3X9.`.eX3XaXSX$X^.GXUXkX:X9. .8.P y.2 4.oXoXOXx.! ",
"[.| 8XpXqX6X8X8Xb.m.w.$XFXCX( AXA.m 0X=X%X=Xo.xXxXdX.X%Xb.&X.Xk.l.[ @.o.9.3X2X2.'.*XeX@XL. X/.A.CXP.x.*.E ^ S 2.5 G _.9.9.} ( ",
"[.X.%X6XpX8XqX8Xm.m.r.XXHXSXA.AXJ.: #XoX$XxX@.=X3XxX.X%X Xk.] : P.,Xo.+Xu .X#X&.e.l.r.r.y.'.].H.P./ t...} *.2 n 6 a U ! U ( C ",
"[.X.9Xb.h.n.g.6Xm.m.w.#XIXSXU H.u.P $XXX*X&X .| y 9X.X3Xl.c m O 6.x.) j.m &X$X9.e.r.r.+Xn. X^.A./ ~ m | | >.6.DX6 P.SX!.!.~.CX",
").| aX,.} 6XR U t.M ..<XLXv v Q.M E y.m j.5.u.1.! %XOXhXt.! U i.M q ) q.m q.+X+.e.l.+X Xc.j././ K.u.u.U } 3.8.DXU P.HXZXGXCX!.",
").X.l.t.k.y.: 7 J.2X .,.c.v : L.v v L.t.c.R.Q.L.u.L.*X%Xt.R v ,.g m +.n = v n.v.@.r. Xj.1.e./.R 7.5.v.,.d Y V.SXK V.CXZXZXZX!.",
"/.[ k.g.T.A L v / 7X~ O 3 7 3 o   M pX .n.] y.g.= U g.{ = 3 g N R u.t.M = =  .q.c p m t.N ) [ O , d  .6 3 d P.IXP !.UXIXIXGXSX",
"/.] y.A.H.H.A v ; ( U O 7 C : 7 = o N g # M n g ; o   y = 3 = y S :  . .7 . c c p ) N M M p [ O % f 2.4 5 S / ~.v ~ !.~.P.J.J.",
"/.'  .:   o o v 7 3 o : : A : 7 7 : O O O 3 O   O O . - = o = o # 3 - ; * X # # 8 r & c M # 8 % 4 0 g y 5 Z 1 a < X q $ $ < X ",
"^.) c = o O = o = o O O   = 3 3 = o O o o o O O O * ; M = = o 8 0 5 : 3 % c p # 9 9 0 p p r r q e h m m 3 C 7 R a $ g F k u X ",
"^.p ..N = = = % o = % % o o = o O O O % o 3 X X X X = N = v * & - - o , % { ] t t * 0 r e x q e e q ` u = P V R g X 8.U.<.G.F ",
"0.9  .; v M ; v v N N a o 3 = 3 o O ; 3 X v N > 4 , - N 3 v R a 4 4 o = % c p N - y & r z & , e r 0 h & 3 I C m 4 O -.' q ` G ",
"e.R n n ! M R m M M R R R R 3 7 7 7 v 7 3 7 7 7 d U v d 3 7 7 = o o o o X = = X = - * r x < < e r y g h f S 6 a a g ` w # r z ",
"2X2XuX2X2X2XW.c.g.i.t.u.,.R / / D./ / / 6.J.J.u.J.J.J.u.v I R U 7 7 7 3 3 3 4 7 - 4 & r r 0 < e e 2.j.x.z.I V H $.-.} w e r G ",
"6 6 S P I Q P P P I U Q Q I 6.K.Y.L.T.R.T.c.c.W.W.n.W.<X*.E &.,.E n } Y b T T k k m h 9 e e z q e x s s S Q S d a < x w r r s ",
"5 5 , 6 d S d d v S 7 7 7 5 3 5 d P E E S P 6.>.R W Y d d s 6 2 4 6 1 < , 3 3 , , , 2 r e q q q q & O X < I V 2 & U *.G l k T ",
"B V 1 % > : : 3 1 5 C 7 7 V I U U V s 6 5 D I , X $ X % 2 1 X : 2 3 5 1 , , , , , 1 < r q q q 0 r k W 3.5.S 1 ^ E.Q.Q.E.D.Y.Y.",
"B 5 1 6 V I I I I I I S 7 U ^ 4.7.i.d.p.1.%.f s s s s f s f h k Y s s a a f l $.} &.$.r q x e q 9 8.E.Q.T.E F 6.4X4XkX4XH E.E.",
", , , V V : > > > > B B V L > > : > 5 5 , , , > : : , 5 2 T <.8.8.>.2.1.z.8.y.z.z.c.x.r q x q q w z.,XR.x.z.8.3.*.F 6 S F.2 > ",
"V B C 1 5 5 Q 6.L.E.Q.2X2XQ.E.u.I V 1 2 6 s f f G *.&.&.>.z.c.R.T.T.R.R.R.,X,X,X,X,XR.e x q q e e x F < 2 2 X : , 2 4 s F f l ",
":.5./ W Q P P P P 5.i.Y.Q.W.,X2XW.T.i.s.z.T.R.R.W.W.W.,XW.x.z.z.1.<.z.,Xx.,.,.8.8.T f e r q e q w & 2 2 s F G H F H H 3.K K Y ",
"5.4.i.p.s.s.d.i.i.5.5.5.u.a.L.T.c.T.E.W.Q.W.W.Q.W.W.W.W.W.s.k < $ < S v E 1.*.*.l 2 > + $ z q 0 X 2 2 s z k z m T E 4.=.K H z.",
":.! :.:.:.4.:.>.7.i.i.s.7.i.5.a.i.4.6.5.5.:.W W T Q W *.:.T G Y - a g & : 4 4 $ $ l x.j x ;.;.;.` 9._.9.z.I.z.x.x.x.>.g . $ g ",
"W E E E :.:.:.:.W 4.:.:.:.4.7.s.a.a.i.i.7.a.7.d.4.4.W E *.5.>.*.-.*.<.1.z.8.8.8.z.} ' ' r ' ' ' ' ' ' ;.z.9.z.9.z.8.$.k d % 2 ",
"T Y E W :.*.! :.:.:.4.>.4.4.:.:.4.4.4.4.:.4.7.a.a.7.4.:.7.8.8.4.8.8.8.U.U.U.U.x.U.<.s 2 & 0 x 2 2 k G -.<.2.1.1.<.1.<.&.b b 4.",
"Q W T W E E :.W E E E W ! :.4.4.5.a.s.d.d.I.I.I.I.I.U.I.I.z.z.z.z.I.z.z.z.z.8.z.8.8.5.3.Q H H K T =.=.>.;.=.&.=.=.%.} E b E $.",
"E T T Y Y Y Y Q W :.4.5.7.a.s.d.K.I.c.K.Y.Y.Y.Y.I.I.I.U.I.I.z.I.z.s.s.p.p.z.p.p.4.>.>.=.%.*.=.*.-.%.*.%.-.%.-.&.%.$.$.T T T T ",
"F Y Q *.4.i.i.i.u.a.a.a.7.u.7.a.a.s.d.d.d.d.d.s.d.d.s.s.s.s.s.a.8.8.p.i.8.8.1.2.<.>.>.>.&.%.T } } b $.%.%.%.%.-.-.b $.} } T } ",
"1.i.p.d.p.a.a.7.5.5.7.u.5.5.a.a.s.d.d.d.s.s.s.d.z.K.s.s.z.i.p.7.s.a.8.8.1.8.<.<.<.>.&.&.%.T T $.T T *.-.%.$.$.$.$.$.$.$.G $.T ",
"5.7.>.4.4.5.5.5.7.5.5.5.5.7.5.J.a.K.d.Y.I.K.K.I.K.d.s.a.a.i.a.7.8.8.8.7.7.7.1.>.>.*.:.%.E $.T T $.-.-.*.%.-.%.$.$.$.$.-.$.G G ",
">.>.4.4.5.7.i.5.7.5.5.5.5.5.7.u.a.K.s.s.d.K.d.K.s.s.J.a.5.a.a.5.4.4.4.5.>.>.>.>.*.*.>.=.%.-.-.%.-.$.%.=.%.%.-.%.$.$.l l k k b ",
":.:.=.:.:.4.5.4.4.5.5.5.6.5.5.5.6.5.5.7.a.a.a.a.a.a.7.7.5.4.4.4.8.8.4.4.>.:.>.=.<.>.=.<.=.=.-.-.-.$.-.$.-.-.$.T G } l k l b $."
};
