/* XPM */
static char *_7c22072aabc4377841f01a805dc048awzC1j57rXnVsS5ak[] = {
/* columns rows colors chars-per-pixel */
"64 64 252 2 ",
"   c #010201",
".  c #050902",
"X  c #090902",
"o  c #090703",
"O  c #180B00",
"+  c #1A1605",
"@  c #171A16",
"#  c #0C110A",
"$  c #260C02",
"%  c #221504",
"&  c #2C1D0C",
"*  c #251A08",
"=  c #331C0D",
"-  c #38180A",
";  c #2A1E11",
":  c #3A1E14",
">  c #341E12",
",  c #2B220D",
"<  c #33230D",
"1  c #39250D",
"2  c #2D2312",
"3  c #272718",
"4  c #342413",
"5  c #3B2415",
"6  c #3C2B14",
"7  c #3D251A",
"8  c #3D2C1A",
"9  c #342A18",
"0  c #3A321B",
"q  c #252924",
"w  c #393526",
"e  c #303733",
"r  c #1E2317",
"t  c #481C15",
"y  c #481D10",
"u  c #442C15",
"i  c #432B1B",
"p  c #4C2C1C",
"a  c #462418",
"s  c #532B1B",
"d  c #433116",
"f  c #44331C",
"g  c #4B331D",
"h  c #4B381A",
"j  c #53331D",
"k  c #5A351A",
"l  c #4B250E",
"z  c #67391E",
"x  c #622D13",
"c  c #442B22",
"v  c #482B22",
"b  c #572922",
"n  c #4C3324",
"m  c #4E3C23",
"M  c #483827",
"N  c #533423",
"B  c #5A3424",
"V  c #523B25",
"C  c #533C2B",
"Z  c #5B3B2C",
"A  c #593828",
"S  c #5B3D32",
"D  c #453E31",
"F  c #642B27",
"G  c #663A27",
"H  c #643C35",
"J  c #743C2C",
"K  c #3C4339",
"L  c #484328",
"P  c #5B422B",
"I  c #574429",
"U  c #494838",
"Y  c #5A4634",
"T  c #595439",
"R  c #67452B",
"E  c #74442B",
"W  c #76492C",
"Q  c #634234",
"!  c #654439",
"~  c #6C4B3B",
"^  c #684836",
"/  c #734D34",
"(  c #7A4C32",
")  c #724D3B",
"_  c #744538",
"`  c #675439",
"'  c #72533C",
"]  c #7B533C",
"[  c #7A5437",
"{  c #60502E",
"}  c #3A484B",
"|  c #3B4651",
" . c #444D45",
".. c #4A5349",
"X. c #565645",
"o. c #495557",
"O. c #535B58",
"+. c #424C58",
"@. c #744D44",
"#. c #695544",
"$. c #7C5442",
"%. c #785948",
"&. c #6C5249",
"*. c #5A625A",
"=. c #5B624D",
"-. c #786549",
";. c #676858",
":. c #7A6A56",
">. c #746A4E",
",. c #545D66",
"<. c #4A5762",
"1. c #5D6A6C",
"2. c #596467",
"3. c #5D6A74",
"4. c #5D7175",
"5. c #626D6C",
"6. c #66736C",
"7. c #777366",
"8. c #636E74",
"9. c #656D78",
"0. c #667273",
"q. c #697575",
"w. c #6B757B",
"e. c #6D7A7B",
"r. c #687777",
"t. c #737C7A",
"y. c #776C64",
"u. c #313D49",
"i. c #83553B",
"p. c #88583B",
"a. c #8C5437",
"s. c #8B5D44",
"d. c #855B47",
"f. c #865D53",
"g. c #8C624B",
"h. c #866449",
"j. c #946244",
"k. c #93634C",
"l. c #9C6B4C",
"z. c #98674A",
"x. c #886757",
"c. c #946B54",
"v. c #9C6B54",
"b. c #966857",
"n. c #897557",
"m. c #977558",
"M. c #96734E",
"N. c #A16D4E",
"B. c #A7744C",
"V. c #A26E55",
"C. c #A57153",
"Z. c #AA7453",
"A. c #AD7A53",
"S. c #A7775C",
"D. c #B27D58",
"F. c #976C63",
"G. c #9A7666",
"H. c #897568",
"J. c #A26C64",
"K. c #A37363",
"L. c #AA7B64",
"P. c #A57869",
"I. c #A57C73",
"U. c #75837D",
"Y. c #718171",
"T. c #8D825D",
"R. c #B5835A",
"E. c #B5855A",
"W. c #AA815F",
"Q. c #988565",
"!. c #9B9678",
"~. c #938C72",
"^. c #AD856B",
"/. c #A9886B",
"(. c #B3876A",
"). c #AB8775",
"_. c #B38772",
"`. c #A59B78",
"'. c #AA9371",
"]. c #A8A27B",
"[. c #B0A97E",
"{. c #6C7C83",
"}. c #6B7A85",
"|. c #727D85",
" X c #6D8189",
".X c #748283",
"XX c #73838C",
"oX c #798687",
"OX c #768A92",
"+X c #7B8D95",
"@X c #788995",
"#X c #7E929C",
"$X c #7E9197",
"%X c #6E8392",
"&X c #7E98A1",
"*X c #868A87",
"=X c #828E96",
"-X c #83939C",
";X c #869396",
":X c #939D9A",
">X c #939487",
",X c #A69A84",
"<X c #AA9A8E",
"1X c #ABA687",
"2X c #B4AB8A",
"3X c #A6A798",
"4X c #B5AC96",
"5X c #BCB897",
"6X c #B6B28C",
"7X c #8B9BA5",
"8X c #8698A4",
"9X c #949FA9",
"0X c #939EA7",
"qX c #8EA2AB",
"wX c #94A2AC",
"eX c #9AA4AD",
"rX c #9CA9AB",
"tX c #9CABB3",
"yX c #97A7B3",
"uX c #8EA8B2",
"iX c #B8B6A7",
"pX c #A1ADB6",
"aX c #AAB4B9",
"sX c #ADAFAC",
"dX c #9EA299",
"fX c #C2BB98",
"gX c #C0B48B",
"hX c #C4BEAB",
"jX c #BCC0AC",
"kX c #C7C29D",
"lX c #CCC6A4",
"zX c #C9C6A8",
"xX c #C7C7B9",
"cX c #D9D5B7",
"vX c #D5CFAD",
"bX c #E1D9B7",
"nX c #E8E3BA",
"mX c #A8B6C3",
"MX c #B3BDCA",
"NX c #9BB6C1",
"BX c #B7C8D1",
"VX c #C9CCC3",
"CX c #D0D4D0",
"ZX c #E5DDC3",
"AX c #E8E6C9",
"SX c #F0EFD8",
"DX c #D6DCE1",
"FX c #DBE5E9",
"GX c #F8FBE5",
"HX c #F4FCFA",
"JX c #EBF1F4",
"KX c #DCEADF",
/* pixels */
"].].`.`.].!.].>X].].`.].1X].].].].`.].,X1X~.:.' T C C m V V P ' -.G.m./.^.).^.)._._.I._._._._._._._._.(.^.^.(.^.(.)._.'.].[.`.`.",
"1X1X1X[.1X2X1X2X2X6X6X6X1X1X6X1X[.[.1X1X!.:.T V h u 5 5 : 5 a i m Q %.c.G.G.P.^._.^._._.I._._._.(.(.L.(.^.^./.^.^.^.^.'._.[.].`.",
"5X5XkXkXkXfX5X5X5XfX5XfX5X5X6X5XfX5XgX1Xn.` I C C n n i 5 = = 5 1 u A ~ %.x.b.G.I.^.^.I.L.L.L.L.L.^.(.L./.^.'.(.(././.'.'.'.].`.",
"lXlXlXkXlXzXzXlXjXkXkXkXkXfXfXfXgXfXfXQ.>.` #.#.&.%.%.&.Y n a : = 5 g A / $.f.b.v.G.K.G.L.P.L.K.S.L.K.L.S.^.^._.(./././.'.!.`.'.",
"kXkXhXvXzXzXjXfXfXkXkXlXlXkXkXlXkXkXgXn.-.%.-.%.x.x.x.:.%.#.S p 5 a g N P ^ ) d.b.b.c.b.b.b.v.v.b.b.c.m.K.S./.(.'.(.'.'.Q.Q.'.].",
"1XiXcXAXAXcXjX5X6X6X[.lXvXnXbXlXkXlX2X:.#.-.%.x.m.H.c.n.n.%.' P n p n N j G ^ $.f.g.x.h.g.g.b.k.c.g.g.c.m.G.G.P./.'.'.E./.'.T.[.",
"iXVXSXGXGXSXKXcXzXkXgXbXnXnXnXbXvXcX6X>.>.%.x.I.G.G.F.x.-.%.%.@.H A N N V G / ] $.$.$.$.d.d.d.$.$.] ' ' ` ' -.-.h.m.T.'.Q.'.T.[.",
"jXiXVXSXGXGXSXcXzXkXgXnXvXvXnXbXcXcX4X:.:.n.x.%.%.-.%.%.~ ^ &.@.@.H Z A A H _ $.$.] d.) / ^ R A N g p d d 5 6 m I { [ T.Q.T.T.gX",
"xXVXCXAXGXGXGXSXcXkX5XgX`.gXkXnXcXbX4Xn.:.T i 4 : c N Y &.S S ! &.H A S Q ^ ] d.$.d.d._ R B p a l 1 1 < < & & < 0 h I { >.Q.T.6X",
"jXcXZXVXAXSXGXAXcX5X[.2XbXnXkXcXAXcX<Xn.Y 7 * & ; * 4 v M S b C Z H Z H ) d.g.M.k.s.i.^ Z p 1 5 : = = & & & & & , , 6 m ` n.T.[.",
"jXzXzXvXcXAXZXvXvX5X1X6XnXnX6XvXAXvX,X:.C w D 3 + 3 D U 7 c b b B Z B H ' M.W.E.S.c.s.) A u > : : > < 4 < < 1 9 1 1 1 d { ` M.-.",
"jX4X3XiXzXhXiX4X5X1X5X`.].!.T.cXZX4XG.-.! Y #. .U X.:.;.X.: v b b N B B h.M.W.(.(.Z.g.] Z a : : : 7 5 5 u d n L L V 6 6 d I ` T.",
"iXxXiXiX4X4X4X1X4X!.kXvX].].kXnXhX,XI.n.%.! &.*.:.:.;.%.&.C t t b C P / h.A.E.(.(.R.p.[ I d i c c v n n M V C Y #.` I L d h { [.",
"3XsXsXiXsX1X,X!.!.T.fXcXcXcXcXcXfX_././.x.&.@.! Y &.&.&.&.H F v b @.[ h.M.W.E.R.R.A.j.[ k d i c c v M n n I ! ^ { { [ { h h { gX",
":XsXsXrX3X3XdX,X>X1XzXcXzXzXxXzX2X,X'.~.G.%.@.@._ ! H H H H ! @.%.f.s.z.B.R.R.R.B.M.j.( k h u c c c c c P ^ $.-.h.` { [ { h h !.",
"sXsXsXsXrX3X3X1X3X3X>X1X3X3X1X5XgX<X,X/.G.x.@.@.@.! ! H H ! @.@.%.f.k.v.A.R.R.R.A.z.p.( I h 5 a 7 a c c c M m I -.h.` ` { L h { ",
"aXVXmXhXsXaXsXsXiX3XiXjXiXiXhX4X<X<X<XI.I.F.f.f.%.@.%.@.@.@.! d.c.k.l.B.B.R.R.R.B.l.p.( R V n 8 7 : : : $ + + * 8 ` -.^ Y m L T ",
"DXJXDXCXCXCXVXVXxXxXxXxXxXxXhX<X<X<X_._.I.I.F.b.f.%.f.@.@._ $.F.v.j.N.B.A.B.R.R.B.M.s.( R I C 7 > : C Y 9 O O O + > P ~ Y I { >.",
"FXJXDXDXDXCXVXCXCXBXCXCXxXVXzX<X<X<X_._.I.I.F.F.F.f.$.@._ @.F.b.l.N.N.B.R.R.R.B.B.B.j.[ R R R Z n S ! %.&.D w w c = i Y I I >.H.",
"JXJXDXDXDXDXCXCXCXjXjXjXjXxX4X,XI._.I.I.I.I.F.F.f.f.$.@.f.G.V.v.N.C.B.B.R.E.R.R.B.z.g.[ W ^ ^ ^ ! S S X.X.#.#.Y L 7 5 N A I ~.1X",
"HXJXJXJXJXHXJXHXxXU.3X3X<X>X>XI.I.I.I.I.I.F.F.F.b.b.b.m.K.L.v.N.N.C.C.Z.R.R.R.R.B.l.j.[ [ / / ` ! S C C S S C C n 8 > f C T ,X,X",
"HXFXJXHXHXHXHXHXCX:XsX3X3X>X>XF.F.I.J.I.J.I.J.F.F.K.P.P.P.L.C.C.C.C.C.Z.R.E.R.B.B.z.j.i.R / / ` @.H S S S C S N n i 5 c I :.>X!.",
"HXJXHXHXHXHXJXHXJXrX3XsX<X>X*XF.F.F.F.J.I.I.J.I.K.L.L.L.L.S.N.N.N.V.Z.D.R.E.R.B.B.N.j.s.[ / / ~ ! Q P Q S H S S C M I Y T ~.!...",
"FXBXDXJXJXFXmXVXMX;XrXrX3X<XH.H.H.F.F.J.J.J.J.J.S.(.S.S.^.S.N.z.j.C.Z.D.E.E.B.B.B.M.j.s.i./ / / ! Z Q ! ! H ! S Z S T -.` !.JXKX",
"uX&XNXuXNXqXyXmX-X|.mX9X3X<XH.H.f.F.F.F.J.J.J.L.D.D.S.L.S.l.j.j.j.Z.D.D.D.D.Z.Z.B.N.j.p.i.( [ ] ' R R Q ^ ~ ^ Q H ^ ' -.-.T.CXCX",
"NXNXBXNX%X@XMXyX|.}.8X|.|.>XH.F.f.x.f.F.J.J.L.J.J.Z.V.V.l.j.j.a.N.Z.Z.D.D.D.Z.Z.C.N.l.a.( [ [ i.i.) Q Q ~ ) ) / ~ ' [ -.n.>.O.o.",
"NXBXBXmX}.}.mXqX,.9.9X|.:X*Xy.x.f.f.f.J.J.J.J.J.V.N.N.N.j.N.C.C.B.B.Z.D.D.D.Z.Z.C.C.Z.a.G E i.p.s.d.$._ _ _ $.%.h.h.h.M.n.>.X...",
"@X8XqXyX}.}.NX|.+.3.8X+.2.|.y.y.F.F.f.F.V.J.J.J.V.V.z.k.N.Z.B.B.B.Z.Z.D.L.Z.Z.C.N.N.V.a.J z W p.s.s.d.d.$.) ] i.k.m.m.Q.T.-.K w ",
"}.}.@XyX}.,.8X,.<.,.|.| | H.y.x.x.F.b.b.F.V.J.J.V.V.k.j.N.N.l.N.N.C.C.B.V.N.j.j.a.a.j.j.i.E ( i.g.g.j.s.p.s.s.h.M.T.M.M.M.{ + w ",
"3.3.3.@X}.<.@X| +.| u.e e 9.y.:.f.F.b.b.b.J.V.V.v.b.k.j.s.J i.j.k.k.z.a.a.a.a.a.a.a.a.a.p.( E i.p.k.g.s.h.j.g.k.M.M.M.T.n.{ L K ",
"+.| u.<.+.| }.yX}.}.=X=X=X*Xy.f.x.x.f.k.k.v.v.z.k.j.j.s.J y y t %.d.a.W a.J J J z z J E W ( W ( i.s.s.s.s.h.h.M.M.h.M.M.>.>.K 3 ",
"+.<.| | +.3.uXBXmXpXeXpXmX*Xy.f.f.f.f.f.k.k.k.k.j.j.N.a.x - $ $ u ' a.E x J z z k s y l k E E ( i.p.s.s.p.j.p.p.p.p.p.[ { >.L 3 ",
"MXMXmXmXpXBXBXaXeX=X-X0XrX|.y.x.h.f.f.j.k.k.k.k.v.N.L.v.G y - - $ N G G x x s s : $ O - s G E W i.i.p.s.a.p.p.p.( W W W ` >.T U ",
"mXpXyX7X7XtXpXpXwX=X-XeXpX=Xt.y.h.f.d.f.k.b.v.V.V.K.L.L.d.s p v p s j s l l l - O O $ $ a x E ( W ( i.i.[ p.p.i.W W R R L 9 r + ",
"9XpXtX-X=XwXeXpXeX$X;XpXeX9XoX:.x.x.f.k.b.b.v.V.S.K.K.V.k._ G H Z A B b l y - & * * & = l G W ( W W E W W ( W W W R k { 0 # # . ",
"yXyXtX-X=XqXtXpXqXOX0XpXpXrX~.:.h.h.k.k.b.z.v.V.V.V.v.b.k.] _ H G F B b a a = 1 > 4 1 y k ( ( ( ( ( ( E E E E E z R k T 7.;.=.X.",
"8XwXyX8X#XqXyXyXwXqXeXrXeXrX*XH.:.h.x.c.c.c.v.k.g.g.c.g.] ) _ G b b B C n i : > > 4 a G [ [ ( ( ( E W E z z z z k k N C U =.=.;.",
"8X9XyX8X@X7XwXyXwXwXeXeXpXeX>X7.-.-.g.b.k.k.j.s.s.d.h.] / R G A p b Z N n 7 > > 4 6 C ^ / ( ( [ i.W E z z z k k h d 7 + + + 3 3 ",
"#X8XyX8X%X8XqXyXwX9XwXeXrXrX>X;.-.h.x.f.] [ [ [ [ / ` R G G B B j j N C M 7 > ; = 4 I ^ / R ( [ J E J z z k s h u 1 % X o o   X ",
"#X#X8XuX}.#X7XwXwXeXeXeXrXtX*X=.>.-.x.%.R R I P I R V j N B k j N n n n n 8 > 2 , , d P R R W ( ( _ G z k h l d 4 & O X o X X X ",
"#X|.8XyX}.&XuXuXwXwXwXeXeXeX*X=.=.%.-.' P h d d h g V g a j p j p p i i i 4 4 2 2 2 1 h I I R R / R z k l h d < + + . .   X X . ",
"8X|.|.uX|.|.&XyXyXwXeXeXpX9X;XO.U { %.R h 1 1 l g j j p p s j s p u 5 u 5 4 4 4 4 < 1 6 h h I I P P A k h d d T e   . . . X o o ",
"&X&X|.uX|.}.8XyXwXeXeXeXpXeX>XO.L I ` V l 1 6 d i g n g s N s N N g 5 5 5 5 4 4 4 1 1 6 0 d 6 h h A A h h u L >X3X;.. . o o o o ",
"8X|.|.uX8X}.8XyXwXeXeXeXeXeX;XO.e f I I 6 1 6 6 6 g n N N N N N N f 5 i 7 7 7 4 4 4 4 4 < 1 6 d h P V h d f 7.dXdXaX2.  o o o o ",
"8X&X}.8X8X}.yXyXwXeX9XeXrXwX#XO.w 9 m m d f n n p a p A N N N N N f 6 c i 5 7 7 4 9 5 4 < < , 6 f V V d 0 ;.*X;X;X:XrXK   X . o ",
"&X8X}.|.8X8XuXyXwX0X9XeXrXwX-XO.r 9 f M d m P Q Z a - s N p p i p p i c i 5 7 7 5 4 5 4 < , , 1 d h h 6 T Y.U.oXoX;X:X;Xq   X . ",
"|.8X}.#X8X8XyXqXwX0XwXeXrXeX$XO.3 0 0 M d m ^ ~ H F - y a a 5 a a p a a : > : i 5 5 5 4 < < , 1 h h 0 0 Y.Y.U.oXoXoX;X:X5.. . . ",
"&X&X}.}.8X8XyXyXwX0X0XeXeXeX$XO.q 3 w M f L ^ ) ) J s - - v n 5 7 5 > > : : : > = > > = & = < 6 M 0 2 U Y.Y.U.U.U..XXX*X=Xq   . ",
"&X&X}.}.&XuXuXwXwXqX9XeXeX9X=XO.q 3 c w c M Y ) _ _ _ B - : a 4 7 v c w : c t $ $ $ > 4 4 4 4 0 9 & 3 X.Y.Y.U.U. XU..XoX*X .  o ",
"|.uX}.}.#XqXwXwXwX:X9X9XeXeX=X2.e 9 w 9 9 6 I @._ H @.J F t $ - 7 C v v 7 c : $ = 5 7 i 8 9 4 3 % * w ..Y.U. X.X.X X.X|.|.5.o   ",
"}.&X}.}.$XqXqXqXwX:X0X0XpX9X=X2.K q D w 9 4 M ! _ J J J d.F y - : : : : : : - t a p v c 8 9 , + # , w K 6.U.oXoXU..X|.w.w.2.#   ",
"&X&X&X}.$XqXuXqXqXwXwXeXeX9X;XO.e q w D 3 4 w H ! H F F F F F s b t t t t t b b b s v 8 9 , + # + 3 K } 1.U.oXU.t.|.r.0.9.3.@   ",
"}.&X|.}.%X&X@XqX9X9X9X9X9X9X;X,.e X.w e q ; 0 P ! S B s t b F F F F F F F b b t t c 7 4 , + + w 3 K } K Y.U.U.r.q.e.0.8.9.5.q   ",
"}.&X&X&X}.@X X4.|.;X9X9XeX9X:Xq.O.;.D D w , 2 M C C M i 5 a t l t b t t t t t t a 8 4 , + + 0 T 3 =.*.o.4.Y.1.1.q.e.0.8.0.O.q   ",
"}.&X&X}.}.@X%X}.9.}.|.-XeXeX;Xt.*.O.X.U D 4 , 9 7 c c 8 < < & , & = t - t : 5 7 6 2 @ + + U T K ....1.2.1.*.2.6.q.q.9.9.8.O.q   ",
"}.}.&X}.}.&X@X%X{.{.9.,.5.|.=XoX0.*.O... .q r , 4 8 c 6 4 * * % + $ $ > 9 4 5 4 , + + + I ` L X.6.6.Y.6.4.1.4.6.q.0.8.8.2.o.r   ",
"4.OX$XOX{..X X{. XXX|.9.,.| +.o.1.6.K  .*. .3 * , 9 0 6 4 & * * $ + * 2 4 4 4 & * + + L ` { T 7.6.6.t.q.5.5.0.6.0.0.8.5.2.o.r   ",
"}.XX$XOX X{. X X XoX|.w.9.1.<.| o.XXo...*.*.K @ + , 0 0 4 ; ; * $ % & 2 4 ; = % + * L ` L T 6.6.6.6.t.t.0.5.0.0.0.0.8.8.2.o.@   ",
"3.}.OXoX X XXX{. XoXXX}.w.3.3.2.o.4.oX,.o.*.*.K r @ , 3 3 4 > > * & & , & * % $ * f ` { I ;.Y.r.Y.r.t.U.q.5.0.0.0.q.0.5.,.o.#   ",
"4.}.XXXXXX X{.{.{.XX.X|.w.9.3.2.2.<.Y.o.} 2.4.O.K @ @ , , & ; ; ; ; 2 * % + O < I [ { L =.6.r.U.Y.r.6.t.q.0.q.q.q.q.0.8.o.o.@   ",
"4.}.}. X|.|.}.w.w.|.|.w.}.9.8.3.,.,.4.| K o.2.,. .e r r * * + + + * + + % & 7 V { R I T 6.e.e.U.U.e.Y.U.t.e.0.w.r.r.r.1.o.o.@   ",
"4.}.}.{.|.}.w.}.w.}.|.w.9.0.8.3.2.2.1.2.| } 2.2.O...K 3 , + * % + + % , 1 f Z I I V T ;.6.r..XU. XU..Xe.e.w.w.e.r.r.r.1.+...q   ",
"9.9.}.{.|.w.w.w.9.w.e.w.0.9.8.8.4.,.2.1.4.<.,.4.1.*...K q 3 4 4 5 6 6 u d V R Z m U ;.r.e.e.XXXXe.e.0.0.0.e.w.q.r.r.0.1.+.o.e # ",
"9.9.w.w.}.|.w.w.9.9.0.q.0.0.9.5.4.2.1.1.1.2.} } } ..o...U w 9 0 p g g p h h P j L ;.q.U..X.X.X0.2.1.1.0.w.e.w.q.q.r.0.4...} +.# "
};
