/* XPM */
static char *result[] = {
/* columns rows colors chars-per-pixel */
"64 64 105 2 ",
"   c #4D4E4F",
".  c #5F5F5C",
"X  c #62625E",
"o  c #6A645F",
"O  c #676761",
"+  c #676964",
"@  c #696A64",
"#  c #6D6F6A",
"$  c #736E65",
"%  c #796F67",
"&  c #6E716D",
"*  c #767267",
"=  c #7E7266",
"-  c #71736D",
";  c #7B766C",
":  c #727672",
">  c #787770",
",  c #757975",
"<  c #7B7B74",
"1  c #767C7B",
"2  c #797E7C",
"3  c #83776C",
"4  c #857C6C",
"5  c #827E74",
"6  c #7D817D",
"7  c #858177",
"8  c #8B8375",
"9  c #83827B",
"0  c #89857B",
"q  c #8C897E",
"w  c #938977",
"e  c #9C8F77",
"r  c #958D7D",
"t  c #998E7B",
"y  c #9B917E",
"u  c #A1957E",
"i  c #A79B7F",
"p  c #7D8383",
"a  c #7D8689",
"s  c #828683",
"d  c #858884",
"f  c #8B8B84",
"g  c #808788",
"h  c #828A8D",
"j  c #8E8E89",
"k  c #938D82",
"l  c #959186",
"z  c #9C9484",
"x  c #94928A",
"c  c #9B968B",
"v  c #9E998D",
"b  c #848D92",
"n  c #869096",
"m  c #879198",
"M  c #89949C",
"N  c #959691",
"B  c #999790",
"V  c #9D9B92",
"C  c #9F9F9A",
"Z  c #A19682",
"A  c #A49A85",
"S  c #A99D85",
"D  c #A49C8B",
"F  c #A99E8A",
"G  c #A39E92",
"H  c #A89F90",
"J  c #ACA084",
"K  c #A6A08F",
"L  c #ACA28D",
"P  c #B2A58E",
"I  c #A6A194",
"U  c #ADA492",
"Y  c #A3A29B",
"T  c #ACA69A",
"R  c #AFA99B",
"E  c #B1A692",
"W  c #B3A995",
"Q  c #B9AD96",
"!  c #B4AC9B",
"~  c #B9AF9B",
"^  c #B7B09D",
"/  c #BBB19D",
"(  c #8E99A2",
")  c #A7A8A2",
"_  c #AAA9A2",
"`  c #B5AEA1",
"'  c #B7B0A3",
"]  c #BCB4A3",
"[  c #BFB8A5",
"{  c #B7B2A8",
"}  c #BEB7AA",
"|  c #BEB8AA",
" . c #C0B7A3",
".. c #C2B8A4",
"X. c #C3BBAB",
"o. c #C8BFAD",
"O. c #C5BFB0",
"+. c #C9BFB1",
"@. c #C9C1AF",
"#. c #C7C2B5",
"$. c #C9C2B2",
"%. c #CAC5BA",
"&. c #CFC9BD",
"*. c #D2CCBF",
"=. c None",
/* pixels */
"=.=.=.=.=.=.=.=.=.=.=.=.=.=.=.=.=.=.=.=.=.=.=.=.=.=.=.=.=.=.=.=.=.=.=.=.=.=.=.=.=.=.=.=.=.=.=.=.=.=.=.=.=.=.=.=.=.=.=.=.=.=.=.=.",
"=.=.=.=.=.=.=.=.=.=.=.=.=.=.=.=.=.=.=.=.=.=.=.=.=.=.=.=.=.=.=.=.=.=.=.=.=.=.=.=.=.=.=.=.=.=.=.=.=.=.=.=.=.=.=.=.=.=.=.=.=.=.=.=.",
"=.=.=.=.=.=.=.=.=.=.=.=.=.=.=.=.=.=.=.=.=.=.=.=.=.=.=.=.=.=.=.=.=.=.=.=.=.=.=.=.=.=.=.=.=.=.=.=.=.=.=.=.=.=.=.=.=.=.=.=.=.=.=.=.",
"=.=.=.=.=.=.=.=.=.=.=.=.=.=.=.=.=.=.=.=.=.=.=.=.=.=.=.=.=.=.=.=.=.=.=.=.=.=.=.=.=.=.=.=.=.=.=.=.=.=.=.=.=.=.=.=.=.=.=.=.=.=.=.=.",
"=.=.=.=.=.=.=.=.=.=.=.=.=.=.=.=.=.=.=.=.=.=.=.=.=.=.=.=.=.=.=.=.=.=.=.=.=.=.=.=.=.=.=.=.=.=.=.=.=.=.=.=.=.=.=.=.=.=.=.=.=.=.=.=.",
"=.=.=.=.=.=.=.=.=.=.=.=.=.=.=.=.=.=.=.=.=.=.=.=.=.=.=.=.=.=.=.=.=.=.=.=.=.=.=.=.=.=.=.=.=.=.=.=.=.=.=.=.=.=.=.=.=.=.=.=.=.=.=.=.",
"=.=.=.=.=.=.=.=.=.=.=.=.=.=.=.=.=.=.=.=.=.=.=.=.=.=.=.=.=.=.=.=.=.=.=.=.=.=.=.=.=.=.=.=.=.=.=.=.=.=.=.=.=.=.=.=.=.=.=.=.=.=.=.=.",
"=.=.=.=.=.=.=.=.=.=.=.=.=.=.=.=.=.=.=.=.=.=.=.=.=.=.=.=.=.=.=.=.=.=.=.=.=.=.=.=.=.=.=.=.=.=.=.=.=.=.=.=.=.=.=.=.=.=.=.=.=.=.=.=.",
"=.=.=.=.=.=.=.=.=.=.=.=.=.=.=.=.=.=.=.=.=.=.=.=.=.=.=.=.=.=.=.=.=.=.=.=.=.=.=.=.=.=.=.=.=.=.=.=.=.=.=.=.=.=.=.=.=.=.=.=.=.=.=.=.",
"=.=.=.=.=.=.=.=.=.=.=.=.=.=.=.=.=.=.=.=.=.=.=.=.=.=.=.=.=.=.=.=.=.=.=.=.=.=.=.=.=.=.=.=.=.=.=.=.=.=.=.=.=.=.=.=.=.=.=.=.=.=.=.=.",
"=.=.=.=.=.=.=.=.=.=.=.=.=.=.=.=.=.=.=.=.=.=.=.=.=.=.=.=.=.=.=.=.=.=.=.=.=.=.=.=.=.=.=.=.=.=.=.=.=.=.=.=.=.=.=.=.=.=.=.=.=.=.=.=.",
"=.=.=.=.=.=.=.=.=.=.=.=.=.=.=.=.=.=.=.=.=.=.=.=.=.=.=.=.=.=.=.=.=.=.=.=.=.=.=.=.=.=.=.=.=.=.=.=.=.=.=.=.=.=.=.=.=.=.=.=.=.=.=.=.",
"=.=.=.=.=.=.=.=.=.=.=.=.=.=.=.=.=.=.=.T V 6 =.=.=.=.=.=.=.=.=.=.=.=.=.=.=.=.=.=.=.=.=.=.=.=.=.=.=.=.=.=.=.=.=.=.=.=.=.=.=.=.=.=.",
"=.=.=.=.=.=.=.=.=.=.=.=.=.=.) =.=.=.=.] v & I V 9 =.=.=.=.=.=.=.=.=.=.=.=.=.=.=.=.=.=.=.=.=.=.=.=.=.=.=.=.=.=.=.=.=.=.=.=.=.=.=.",
"=.=.=.=.=.=.=.=.=.=.=.=.=.R x < B _ =.G A 7 W K < B B s =.=.=.=.=.=.=.=.=.=.=.=.=.=.=.=.=.=.=.=.=.=.=.=.=.=.=.=.=.=.=.=.=.=.=.=.",
"=.=.=.=.=.=.=.=.=.=.=.=.=.[ z 6 v x - l Y c T U f ! v ; x V d =.=.=.=.=.=.=.=.=.=.=.=.=.=.=.=.=.=.=.=.=.=.=.=.=.=.=.=.=.=.=.=.=.",
"=.=.=.=.=.=.=.=.=.=.=.=.=./ v x U k * v V < x T v z y 0 I I 6 6 v x d =.=.=.=.=.=.=.=.=.=.=.=.=.=.=.=.=.=.=.=.=.=.=.=.=.=.=.=.=.",
"=.=.=.=.=.=.=.=.=.=.=.=.=.[ F F I z l v T < B T 6 ; c V B D q l z q > V G j =.=.=.=.=.=.=.=.=.=.=.=.=.=.=.=.=.=.=.=.=.=.=.=.=.=.",
"=.=.=.=.=.=.=.=.=.=.=.=.=.] F I T F c r K x ` { < 6 Y x - l I V k r q F U 9 , c V j =.=.=.=.=.=.=.=.=.=.=.=.=.=.=.=.=.=.=.=.=.=.",
"=.=.=.=.=.=.=.=.=.=.=.=.=./ D c A A z l ^ | _ ^ r l @.I # l G 6 < z G V F f k A z < =.B V f =.=.=.=.=.=.=.=.=.=.=.=.=.=.=.=.=.=.",
"=.=.=.=.=.=.=.=.=.=.=.=.=.] U z r z A v [ %.$.^ F z W v d U U 6 ; G C 9 7 z V v v q x F r : =.Y Y N =.=.=.=.=.=.=.=.=.=.=.=.=.=.",
"=.=.=.=.=.=.=.=.=.=.=.=.=.X.W t 4 z F U { X.[ T K K ~ ^ K K ^ d f $._ < 9 V Y d 0 z v z w < B H c 6 =.=.T V =.=.=.=.=.=.=.=.=.=.",
"=.=.=.=.=.=.=.=.=.=.=.=.=.=.W z 8 w I ^ X.%.{ W L z / [ ! ! ^ G v / ' 7 x [ T $ 5 B G N q 8 B Z S f =.U B 9 , =.=.=.=.=.=.=.=.=.",
"=.=.=.=.=.=.=.=.=.=.=.=.=.=.A y 8 k ! X.#.&.[ W L t L K K ! ! _ ! [ { z c { ` - f ' G 2 ; 0 V G v k V U z 9 =.=.=.=.=.=.=.=.=.=.",
"=.=.=.=.=.=.=.=.=.=.=.=.=.=.L Z 4 y ! ' #.&.! L F y W L A { ] { ' X.[ K D [ T l H +.' < 5 D H j > 5 8 A y < =.=.=.=.=.=.=.=.=.=.",
"=.=.=.=.=.=.=.=.=.=.=.=.=.=.L W v y T f T &.! L L A / L U | ^ ` ! ! K z K W X.K F o.R q x W ~ 5 # 3 = = 3 $ =.=.=.=.=.=.=.=.=.=.",
"=.=.=.=.=.=.=.=.=.=.=.=.=.=.Z u F z E f I $.W Q L K ~ P A ' { ^ ! ^ D t K W ] T  .+.! Z z F / q @ % ; = o o =.=.=.=.=.=.=.=.=.=.",
"=.=.=.=.=.=.=.=.=.=.=.=.=.=.F F A y U r I *.[ P i y A L A W ! R U ] U D F E ^ F ~  .! L P E / 0 .   . X + & =.=.=.=.=.=.=.=.=.=.",
"=.=.=.=.=.=.=.=.=.=.=.=.=.=.U z z z A l c @.X.! Q K L y A ^ [ ^ [ [ T F A T ! W E U F Z S P S < @ @ # O & , =.=.=.=.=.=.=.=.=.=.",
"=.=.=.=.=.=.=.=.=.=.=.=.=.=.! U z r z F I @.[ W / P W W K L K U L ! U r t D W L Q L Z z Z P S < @ & - - : : =.=.=.=.=.=.=.=.=.=.",
"=.=.=.=.=.=.=.=.=.=.=.=.=.=.[ / U A D T W X.] L P J J W Q ! W W A L A k z F L L  .H F Z S E S < : , 1 2 : # =.=.=.=.=.=.=.=.=.=.",
"=.=.=.=.=.=.=.=.=.=.=.=.=.=.X.X.! A A R W ! W L i J i Q / W ! W U W z r z l z K ' ~ Z z S Q F < , , 2 2 2 1 =.=.=.=.=.=.=.=.=.=.",
"=.=.=.=.=.=.=.=.=.=.=.=.=.=.E F U t S ! W / ! L P L P / W P U D L ! L z z 7 - y L ~ z r Z P F 5 1 1 1 a a 1 =.=.=.=.=.=.=.=.=.=.",
"=.=.=.=.=.=.=.=.=.=.=.=.=.=.~ S y r ! / [ [ ^ E E Q S L Z A S S Z J P y z 5 * Z E F A D E P F s 1 , 1 b h p =.=.=.=.=.=.=.=.=.=.",
"=.=.=.=.=.=.=.=.=.=.=.=.=.=.~ L F y L U U ' ! J L Q P P Z Z S U L Q E y w 8 * A  .E D D S E ! < , 1 a m M m =.=.=.=.=.=.=.=.=.=.",
"=.=.=.=.=.=.=.=.=.=.=.=.=.=.] F U S T / U E E W L Q / Q P A Z E L L J Z y q ; Z ~ / W U P Q A < 1 a n m M ( =.=.=.=.=.=.=.=.=.=.",
"=.=.=.=.=.=.=.=.=.=.=.=.=.=.o.~ ! S U T U [ / ..[ ] [ / F Z F ! W J A y y z l y E  .E E ~ ..H 9 5 b b b b a =.=.=.=.=.=.=.=.=.=.",
"=.=.=.=.=.=.=.=.=.=.=.=.=.=. . .W F A v z [ o.o.[ W ^ E Z Z P E W Q L L E J K J ~ ] R F ~ / R p 2 a b a 2 2 =.=.=.=.=.=.=.=.=.=.",
"=.=.=.=.=.=.=.=.=.=.=.=.=.=. .' U L F E F ! ..[ ^ W L v S E W P W / E L L J J A D F F E E Q ! 2 1 h b a p p =.=.=.=.=.=.=.=.=.=.",
"=.=.=.=.=.=.=.=.=.=.=.=.=.=.E ` T U L / / ! E ! ! L E W L Q ~  .W ~ W A z Z L L F Z Z S F Q z 2 2 b b s 2 =.=.=.=.=.=.=.=.=.=.=.",
"=.=.=.=.=.=.=.=.=.=.=.=.=.=.T ' @.~ !  .' U z E W W W  .Q P E ~ P E P W L F P J Q A L A F P t 6 p n b p : =.=.=.=.=.=.=.=.=.=.=.",
"=.=.=.=.=.=.=.=.=.=.=.=.=.=.=.=.X.] ' { ~ ~ T ' ! ! ~ o. .P Z L A A J Q / L ! / / P L J L P z s g h a 2 & =.=.=.=.=.=.=.=.=.=.=.",
"=.=.=.=.=.=.=.=.=.=.=.=.=.=.=.=.=.=.T R ` X.X.~ H U E  .! E u L J z y E [ S L ! W W y i L P z s g h 6 & & =.=.=.=.=.=.=.=.=.=.=.",
"=.=.=.=.=.=.=.=.=.=.=.=.=.=.=.=.=.=.=.=.H ' } D k z A ! L L Z E J J K J ! L Z P L J y A L P c g g p 1 : & =.=.=.=.=.=.=.=.=.=.=.",
"=.=.=.=.=.=.=.=.=.=.=.=.=.=.=.=.=.=.=.=.=.=.G 5 5 0 Z E U T E T U ^ ! S F U A S L S S W L P v p p p 1 , & =.=.=.=.=.=.=.=.=.=.=.",
"=.=.=.=.=.=.=.=.=.=.=.=.=.=.=.=.=.=.=.=.=.=.=.=.> 5 k T E E E Z A I L U S D Z S / Q P P S / c , 6 p 6 & : =.=.=.=.=.=.=.=.=.=.=.",
"=.=.=.=.=.=.=.=.=.=.=.=.=.=.=.=.=.=.=.=.=.=.=.=.=.=.5 D H T ~ z A W F F S z Z A Q / P ! Q Q r < p n p & 1 =.=.=.=.=.=.=.=.=.=.=.",
"=.=.=.=.=.=.=.=.=.=.=.=.=.=.=.=.=.=.=.=.=.=.=.=.=.=.=.=.c G T T T W R U A U z u ~ ! A L ~ / x 2 a a p & : =.=.=.=.=.=.=.=.=.=.=.",
"=.=.=.=.=.=.=.=.=.=.=.=.=.=.=.=.=.=.=.=.=.=.=.=.=.=.=.=.=.=.G U ! H ! H r t z z z H E F W Q x , 6 6 : : 1 =.=.=.=.=.=.=.=.=.=.=.",
"=.=.=.=.=.=.=.=.=.=.=.=.=.=.=.=.=.=.=.=.=.=.=.=.=.=.=.=.=.=.=.=.G G G G k 5 D D H A L S L W f & , 1 & + & =.=.=.=.=.=.=.=.=.=.=.",
"=.=.=.=.=.=.=.=.=.=.=.=.=.=.=.=.=.=.=.=.=.=.=.=.=.=.=.=.=.=.=.=.=.=.G k z Z H F U H U F W S < > : p : + # =.=.=.=.=.=.=.=.=.=.=.",
"=.=.=.=.=.=.=.=.=.=.=.=.=.=.=.=.=.=.=.=.=.=.=.=.=.=.=.=.=.=.=.=.=.=.=.=.k l H T ! E E t L S 5 , : : & + & =.=.=.=.=.=.=.=.=.=.=.",
"=.=.=.=.=.=.=.=.=.=.=.=.=.=.=.=.=.=.=.=.=.=.=.=.=.=.=.=.=.=.=.=.=.=.=.=.=.=.z D T E D z F F 5 , 1 & @ @ =.=.=.=.=.=.=.=.=.=.=.=.",
"=.=.=.=.=.=.=.=.=.=.=.=.=.=.=.=.=.=.=.=.=.=.=.=.=.=.=.=.=.=.=.=.=.=.=.=.=.=.=.=.G G k G U H 9 , : + =.=.=.=.=.=.=.=.=.=.=.=.=.=.",
"=.=.=.=.=.=.=.=.=.=.=.=.=.=.=.=.=.=.=.=.=.=.=.=.=.=.=.=.=.=.=.=.=.=.=.=.=.=.=.=.=.=.=.D G c - @ =.=.=.=.=.=.=.=.=.=.=.=.=.=.=.=.",
"=.=.=.=.=.=.=.=.=.=.=.=.=.=.=.=.=.=.=.=.=.=.=.=.=.=.=.=.=.=.=.=.=.=.=.=.=.=.=.=.=.=.=.=.=.0 @ =.=.=.=.=.=.=.=.=.=.=.=.=.=.=.=.=.",
"=.=.=.=.=.=.=.=.=.=.=.=.=.=.=.=.=.=.=.=.=.=.=.=.=.=.=.=.=.=.=.=.=.=.=.=.=.=.=.=.=.=.=.=.=.=.=.=.=.=.=.=.=.=.=.=.=.=.=.=.=.=.=.=.",
"=.=.=.=.=.=.=.=.=.=.=.=.=.=.=.=.=.=.=.=.=.=.=.=.=.=.=.=.=.=.=.=.=.=.=.=.=.=.=.=.=.=.=.=.=.=.=.=.=.=.=.=.=.=.=.=.=.=.=.=.=.=.=.=.",
"=.=.=.=.=.=.=.=.=.=.=.=.=.=.=.=.=.=.=.=.=.=.=.=.=.=.=.=.=.=.=.=.=.=.=.=.=.=.=.=.=.=.=.=.=.=.=.=.=.=.=.=.=.=.=.=.=.=.=.=.=.=.=.=.",
"=.=.=.=.=.=.=.=.=.=.=.=.=.=.=.=.=.=.=.=.=.=.=.=.=.=.=.=.=.=.=.=.=.=.=.=.=.=.=.=.=.=.=.=.=.=.=.=.=.=.=.=.=.=.=.=.=.=.=.=.=.=.=.=.",
"=.=.=.=.=.=.=.=.=.=.=.=.=.=.=.=.=.=.=.=.=.=.=.=.=.=.=.=.=.=.=.=.=.=.=.=.=.=.=.=.=.=.=.=.=.=.=.=.=.=.=.=.=.=.=.=.=.=.=.=.=.=.=.=.",
"=.=.=.=.=.=.=.=.=.=.=.=.=.=.=.=.=.=.=.=.=.=.=.=.=.=.=.=.=.=.=.=.=.=.=.=.=.=.=.=.=.=.=.=.=.=.=.=.=.=.=.=.=.=.=.=.=.=.=.=.=.=.=.=.",
"=.=.=.=.=.=.=.=.=.=.=.=.=.=.=.=.=.=.=.=.=.=.=.=.=.=.=.=.=.=.=.=.=.=.=.=.=.=.=.=.=.=.=.=.=.=.=.=.=.=.=.=.=.=.=.=.=.=.=.=.=.=.=.=.",
"=.=.=.=.=.=.=.=.=.=.=.=.=.=.=.=.=.=.=.=.=.=.=.=.=.=.=.=.=.=.=.=.=.=.=.=.=.=.=.=.=.=.=.=.=.=.=.=.=.=.=.=.=.=.=.=.=.=.=.=.=.=.=.=."
};
